<?xml version="1.0" encoding="UTF-8"?>
<svg id="Layer_1" xmlns="http://www.w3.org/2000/svg" version="1.1" viewBox="0 0 512 512">
  <!-- Generator: Adobe Illustrator 29.6.0, SVG Export Plug-In . SVG Version: 2.1.1 Build 207)  -->
  <path d="M512,256l-115.69-58.12,40.71-122.9-122.9,40.71L256,0l-58.12,115.69-122.9-40.71,40.71,122.9L0,256l115.69,58.12-40.71,122.9,122.9-40.71,58.12,115.69,58.12-115.69,122.9,40.71-40.71-122.9,115.69-58.12ZM256,372.4c-64.29,0-116.4-52.11-116.4-116.4s52.11-116.4,116.4-116.4,116.4,52.11,116.4,116.4-52.11,116.4-116.4,116.4Z"/>
  <path d="M360.4,256c0,57.57-46.83,104.4-104.4,104.4s-104.4-46.83-104.4-104.4,46.83-104.4,104.4-104.4,104.4,46.83,104.4,104.4Z"/>
</svg>